# xmcd
#
# Track frame offsets:
#	300
#	27728
#	63580
#	90097
#	126253
#
# Disc length: 2373 seconds
#
# Revision: 0
# Processed by: cddbd v1.5.2PL0 Copyright (c) Steve Scherf et al.
# Submitted via: EZCDAudioConverter 5.0.4.2
#
DISCID=3f094105
DTITLE=Child - Blueside
DYEAR=2016
DGENRE=Blues Rock - Psychedelic
TTITLE0=Nailed To The Ceiling
TTITLE1=It's Cruel To Be Kind
TTITLE2=Blue Side Of The Collar
TTITLE3=Dirty Woman
TTITLE4=The Man
EXTD=
EXTT0=
EXTT1=
EXTT2=
EXTT3=
EXTT4=
PLAYORDER=
